<svg width="130" height="47" viewBox="0 0 130 47" fill="none" xmlns="http://www.w3.org/2000/svg">
<path d="M0.312 1.2H10.68V46H0.312V1.2ZM51.584 22.896H61.056V41.072C58.624 42.9067 55.808 44.3147 52.608 45.296C49.408 46.2773 46.1867 46.768 42.944 46.768C38.2933 46.768 34.112 45.7867 30.4 43.824C26.688 41.8187 23.7653 39.0667 21.632 35.568C19.5413 32.0267 18.496 28.0373 18.496 23.6C18.496 19.1627 19.5413 15.1947 21.632 11.696C23.7653 8.15467 26.7093 5.40267 30.464 3.44C34.2187 1.43467 38.4427 0.431999 43.136 0.431999C47.0613 0.431999 50.624 1.09333 53.824 2.416C57.024 3.73866 59.712 5.65866 61.888 8.176L55.232 14.32C52.032 10.9493 48.1707 9.264 43.648 9.264C40.7893 9.264 38.2507 9.86133 36.032 11.056C33.8133 12.2507 32.0853 13.936 30.848 16.112C29.6107 18.288 28.992 20.784 28.992 23.6C28.992 26.3733 29.6107 28.848 30.848 31.024C32.0853 33.2 33.792 34.9067 35.968 36.144C38.1867 37.3387 40.704 37.936 43.52 37.936C46.5067 37.936 49.1947 37.296 51.584 36.016V22.896ZM103.583 22.704C106.143 23.5147 108.148 24.88 109.599 26.8C111.05 28.6773 111.775 31.0027 111.775 33.776C111.775 37.7013 110.239 40.7307 107.167 42.864C104.138 44.9547 99.7003 46 93.855 46H70.687V1.2H92.575C98.0363 1.2 102.218 2.24533 105.119 4.336C108.063 6.42666 109.535 9.264 109.535 12.848C109.535 15.024 109.002 16.9653 107.935 18.672C106.911 20.3787 105.46 21.7227 103.583 22.704ZM80.991 9.008V19.568H91.295C93.855 19.568 95.7963 19.12 97.119 18.224C98.4417 17.328 99.103 16.0053 99.103 14.256C99.103 12.5067 98.4417 11.2053 97.119 10.352C95.7963 9.456 93.855 9.008 91.295 9.008H80.991ZM93.087 38.192C95.8177 38.192 97.8657 37.744 99.231 36.848C100.639 35.952 101.343 34.5653 101.343 32.688C101.343 28.976 98.591 27.12 93.087 27.12H80.991V38.192H93.087ZM123.072 46.512C121.322 46.512 119.85 45.9147 118.656 44.72C117.461 43.5253 116.864 42.032 116.864 40.24C116.864 38.4053 117.461 36.9333 118.656 35.824C119.85 34.672 121.322 34.096 123.072 34.096C124.821 34.096 126.293 34.672 127.488 35.824C128.682 36.9333 129.28 38.4053 129.28 40.24C129.28 42.032 128.682 43.5253 127.488 44.72C126.293 45.9147 124.821 46.512 123.072 46.512Z" fill="white"/>
</svg>
